<svg xmlns="http://www.w3.org/2000/svg" viewBox="0 0 512 512" style="enable-background:new 0 0 512 512" xml:space="preserve"><style>.st12{fill:#fff}</style><path d="M512 256c0 141.4-114.6 256-256 256S0 397.4 0 256 114.6 0 256 0s256 114.6 256 256z" style="fill:#3d2a3d" id="Layer_9"/><g id="Layer_7"><path d="M405.6 197.9c-.4-42.3-35-76.3-77.3-75.9-34.8.3-63.9 23.7-73 55.5-9.6-31.6-39.2-54.5-73.9-54.2-42.3.4-76.3 35-75.9 77.3.2 23.4 10.9 44.2 27.6 58.2.6.8 1.2 1.6 1.9 2.4l88.1 104.7c19.4 23.1 50.8 22.8 69.8-.6l86.2-106.2c2-2.5 3.7-4.9 5.1-7.3 13.4-14.1 21.6-33.1 21.4-53.9z" style="fill:#db4646"/><path d="M178.3 143c-26.7 5.4-45.3 26.6-48.6 53.3-1.3 10.4 15 10.3 16.3 0 2.4-19.8 17.7-33.8 36.7-37.6 10.2-2.1 5.9-17.7-4.4-15.7z" style="fill:#e7ad84"/><g><path class="st12" d="M277 302.7c0 6.8-5.5 12.3-12.3 12.3h-19.3c-6.8 0-12.3-5.5-12.3-12.3v-88.3c0-6.8 5.5-12.3 12.3-12.3h19.3c6.8 0 12.3 5.5 12.3 12.3v88.3z"/><path class="st12" d="M312 267.7c0 6.8-5.5 12.3-12.3 12.3h-88.3c-6.8 0-12.3-5.5-12.3-12.3v-19.3c0-6.8 5.5-12.3 12.3-12.3h88.3c6.8 0 12.3 5.5 12.3 12.3v19.3z"/></g></g></svg>